<svg id="Layer_1" data-name="Layer 1" xmlns="http://www.w3.org/2000/svg" viewBox="0 0 500 500"><defs><style>.cls-1{fill:#f20f1b;}</style></defs><title>logo-qm001</title><path class="cls-1" d="M395.81,133.15c0-18.55-1.54-35.4-8.94-41.5s-15.06-1.47-25.79,1.22-39.82,11.23-39.82,11.23a9.48,9.48,0,0,0-1.28,7.08c.76,4.39-.77,15.62-.77,24.9s2.3,5.37,8.68,3.42,16.34-8.06,34.47-5.86,14,7.57,12.25,11.72-9.44,3.17-23.23,3.42-32.42,4.88-33.74,5.12.55,21.49,0,30.28,3.32,5.61,7.92,5.61,19.91-5.37,28.34-6.34,25.53-6.35,29.87-4.89,9.19,7.08,12,7.08,1.53-4.15,0-9.52S395.81,151.71,395.81,133.15Z"/><path class="cls-1" d="M164.54,199.72c9.7.25,15.06,5.13,18.64,5.13s8.42.49,6.89-22.95.33-40.77.29-50.54.73-16.6-7.44-17.33-12.38-1-27.89,1.71-17.55,4.15-21.38,4.88-8.94,4.15-8.94,4.1<svg id="Layer_1" data-name="Layer 1" xmlns="http://www.w3.org/2000/svg" viewBox="0 0 500 500">
  <defs>
    <style>
      .cls-1{fill:#f20f1b}
    </style>
  </defs>
  <path class="cls-1" d="M395.81 133.15c0-18.55-1.54-35.4-8.94-41.5s-15.06-1.47-25.79 1.22-39.82 11.23-39.82 11.23a9.48 9.48 0 0 0-1.28 7.08c.76 4.39-.77 15.62-.77 24.9s2.3 5.37 8.68 3.42 16.34-8.06 34.47-5.86 14 7.57 12.25 11.72-9.44 3.17-23.23 3.42-32.42 4.88-33.74 5.12.55 21.49 0 30.28 3.32 5.61 7.92 5.61 19.91-5.37 28.34-6.34 25.53-6.35 29.87-4.89 9.19 7.08 12 7.08 1.53-4.15 0-9.52.04-24.41.04-42.97zM164.54 199.72c9.7.25 15.06 5.13 18.64 5.13s8.42.49 6.89-22.95.33-40.77.29-50.54.73-16.6-7.44-17.33-12.38-1-27.89 1.71-17.55 4.15-21.38 4.88-8.94 4.15-8.94 4.15c0 .73-3.57 7.08-3.06 17.09s-1.38 16.11-.05 18.31.81 4.15 12.56 0 22.21-4.88 28.59-1.46 7.66 7.08 6.64 10-6 3.66-16.38 4.39-18.09 2.44-22.43 2.93-9.47 1-9.47 1-1.29 2.93 0 12.45-3.21 12.7-.57 16.11 8 1.71 18.21-2.68 16.09-3.43 25.79-3.19zM226 315.26c4.54.47 8.33.54 9.19-1.25 1.15-2.41 3.89-13.24 4-18.22s1.38-22.57.73-27.47-.16-15.08-1.54-17.37-3.91-4.76-10.11-5.26c-3.84-.31-10.32-.3-16.77-.09a41.7 41.7 0 0 0-6 1.26c-6.46 2-7.51 4.3-9.56 5 .55.6 0 1.14-3 .92-5.34-.4-14.57-1.68-14.57-1.68-6.52-.31-13.06-.85-14 1.63s-2.72 13.47-2.37 18.44.61 22.62 1.69 27.46 1.49 15 3.06 17.23c1.33 1.87 3.66 3.72 8.1 4.31 7.37-1.4 19-7.52 26.2-8.61 6.14-.95 17.45 1.71 24.95 3.7z"/>
  <path class="cls-1" d="M449 309.23c-.12-10.5-10.12-48.25-10.37-55s2.5-24.5 7.5-36.75-.25-51.75-1.75-59.25-.25-39.5 3-48.75.75-30.25 0-42.75-11-18.5-21.5-22.25-46.75 1.75-56.75 3-39.75-3.75-48.75-6.08-46.5.33-52.48 0-20.27 1.55-22.27.2 6 4.6 7.5 4.6 9 1.25 12.25 1.75 2.5 2.5 2.31 4.5-5.31.75-10.81.75-8.75.25-15.25.5-11.5 1-11.5 1a51.88 51.88 0 0 1 5.36-3.5 20.47 20.47 0 0 0 3.53-2.5s.11-2.25-3.53-3-7.11-1.5-18.36-1.75-74.25-1.5-80.25-2.28-9.25 5.28-16.75 6-20-3.5-31.5-5.5-16.5 2-27.25 6.25c-9 3.56-11.34 17-11.87 21.27-.1.85-.13 1.34-.13 1.34l.46 1.97a55 55 0 0 1 3.54 7.5c1.75 4.5 2.25 5.25 0 10.75s-.75 6.75-.25 14-.25 26.5-.25 26.5L51.63 147l2.5 17.76a81.74 81.74 0 0 1 1.5 15.75c-.25 7-1.25 27.75-1.75 35.5s.75 4.25 1.5 10.25-1.5 9.25-2.75 12.25 4.5 25 4.5 25l-2.75 10-3.75 31.75L57.38 328l1.25 7.75-.25 7.25s-2.5 4.5-4.5 7.75-.25 7.5-1 13.5-.25 21 1.5 29.25-1.75 18.75-1.25 22.75 0 11.75-.75 21.38 0 5.37 4.5 9.91 8.25 9.21 19 8.81 24 3.23 24 3.23 6-2.58 16.72-3.92a32.7 32.7 0 0 1 18.32 2.84s14.5-.5 22.07-2.15 15.68 1.15 27.93 1.4 47.25 2.25 58.29 1.75 20-3.5 28.21-4.59 31-.66 36-.87 14 0 22.75-2.13 15.25 3.09 19.5 3.75 21.5 2.84 34 1.84 31.5 3 40.25 0 22-17.75 22-26 2-34.52 1-43.52 2.21-68.25 2.08-78.75zm-330-88.69c-.63-.25-.64 9.76-.1 17.33s-1.31 36.38-.29 52-.76 69.58-3.83 92.28-13 28.81-17.61 29.06-6.64-5.62-12.77-13.43-4.4-13.91-3.86-21.23 12.77-33.94 17.87-59.08 8.17-71.05 8.68-98.15-2.29-57.87-4.85-76.67a108.65 108.65 0 0 0-9.7-32.47s-9.7-11.47-7.4-15.13 10-2.2 19.4 2 18.64 13.43 25 12.69 18.64-6.34 30.38-9.27 25.79-10.5 30.38-10.5 6.9 2.44 16.86 7.08 16.33 10.5 18.12 13.18.77 4.89-4.59 10.74-3.32 17.34-9.45 25.64-4.6 21.73-4.6 31.74-.25 26.12-3.57 39.31-12 12-18.13 9.52-6.63-13.67-6.63-13.67l-5.88.24s-11.74 1.22-23.49 1.47-29.34 5.56-29.94 5.32zm155.8 168c-4.6-3.11-14.75-4.21-37.15-7.87s-36.19-.37-59.55-.55-27.76-.92-33.89 0-7.47 3.11-10.15 3.11-1.91-7.69-1.53-11.54 4.79-4.58 4.79-4.58 4.4 1.84 5.17 2 18.57-3.11 35.42-1.83 15.89 0 15.89 0 2.3-5.31 3.83-16.67c1.23-9.12-2.49-25.26-2.49-25.26l-1.88-1.71c-4.44.61-8.83 1.24-12.11 1.62-6.18.71-11.32 1.68-15.34 1.2s-4.22-2-9-2.83-10.28-1.83-10.48-3.09 5-4.29 5.94-6.84-1.51-22.88-2.12-27-3.37-25.18-4-28.89-1-11.55 2.26-14 5.46-3.85 9.62-3.49a24.9 24.9 0 0 1 3.78.82 44.15 44.15 0 0 1 9.74.36l.56.06h1.82c4.58.26 20.4.67 27.38.4s17.24-1.19 23.47-1.49 11.45-.93 15.42-.18 4 2.24 8.72 3.42 10.1 2.51 10.19 3.77-5.38 3.95-6.53 6.42-.51 22.9-.26 27 1.15 25.32 1.41 29.06 0 11.58-3.47 13.83-5.8 3.47-9.92 2.83c-3-.46-9.7-3.39-15.18-5.68-6.67.25-15.91.72-20.79 1.23-.89.09-1.83.2-2.81.32a214.18 214.18 0 0 1 8.86 21.13c3.26 9.7 4.79 19.22 13 20.69s33.51 5.67 42.7 7.32 11.3 8.61 14.75 13-1.51 7.07-6.1 3.96zm59.46-100.32v.58c.66 15.6-.87 53.34-2 60.26s-.87 9.7-3.06 9.18-8.94 1.56-12.65-6.41-2.84-10.46.22-14.92 8.07-32.86 5.67-44.46-5.67-22.33-15.06-23.37-14.18-2.07-16.58-1.21a8.83 8.83 0 0 0-2.42 1.45c-.1 5 1 30.85 2.42 36.64 1.52 6.06 2.4 35.66 1.75 41.2s-7.2 13.33-9.39 12.64-4.8-5.54-7.83-8.14.41-8.31 0-16.1 1.1-12.07-1.33-16.56 1.74-10.91 1.33-18.7-.89-17.83-2.37-26.66 3.22-14.71 4.75-20.8-3.93-11.92-3.93-12.09a28.32 28.32 0 0 0-1.76-4.85c-1.11-2.25 1.32-3.28 5.25-2.77s12.22 4.51 13.53 9c.63 2.18.14 7.81-.57 13.37.9 2 2.73 3.88 6.46 4.11 8.29.52 21.17-.52 27.93 5.89 4.73 4.47 7.22 6.49 8.51 12.62 4.43-.16 12.89 0 20.08 2.78 10.25 4 17.67 9.35 17.45 22.34s-.42 35.14 0 42.24 2.84 11.32 0 11.89-17.25-1.16-18.55-9.3.43-25.44.43-32.37 2.18-21.12-.43-23.72-9.11-3.47-13.53-4a13.64 13.64 0 0 0-4.35.29zm-34.76-53.06c.26 0 3.84-1 3.84-1 1.88-3.11 3.41-2.89 14.85-2.89s35.84 3.34 43.18 1.45 10.42-7.24 14-1.45 6.83 16.41 7 20.56-.17 8.84-4.44 6.6-15-8.91-22.19-9.8-32.43-7.12-37.38-8-17.92-.22-20.48-2.45 1.36-3.02 1.62-3.02zm116 20.12c.26 22.22 6.64 117.43 7.15 125.49s3.07 14.89 0 23.2-9.44 21-14 27.34-8.42 12.21-14 8.55-21.19-19.54-29.87-28.81-8.94-9.28-14.81-13.43-13.79-12.94 2-8.79 22 7.32 28.09 7.81 8.93 1 10.46-12 7.15-47.61 6.39-64.21 1.19-55.43 1.7-72.43-.51-24.17-1.27-35.4-3.58-15.13-14.81-15.38-19.4 3.66-31.66 3.91-30.64 3.42-32.68 3.42-1.53 4.63-2 9.27-6.64 5.37-10.72 1-8.43-14.4-9.19-26.12 2.8-36.14 3.06-49.08-.51-31.49-6.38-40.53-13.54-19.53-10-22.46 10-.24 10-.24 10.72 6.83 15.06 10 3.32 4.88 15.06 1 33.7-6.59 44.17-11 13-7.82 21.7-7.33 19.66 5.88 26.81 10.26 12 10.5 7.91 17.33-7.91 19.29-7.91 33.69-.55 102.72-.3 124.94z"/>
  <path class="cls-1" d="M448.87 243.82c.25.09-4.5 7.09-3.5 12.34s1.68 9 1.68 9 .58 13.25 1.82 14 2.25-7.75 1.5-14.75.26-10.75.25-16-1.25-15.41-1.25-15.41-3.75 2.17-2.5 5.42 2 5.4 2 5.4zM241.08 50.16c.84 0 8.09-2.5 8.09-2.5l4.5 2.5s-2.09 2-6.29 1.5a22 22 0 0 1-6.3-1.5z"/>
  <path class="cls-1" d="M241.08 50.16c.84 0 8.09-2.5 8.09-2.5l4.5 2.5s-2.09 2-6.29 1.5a22 22 0 0 1-6.3-1.5z"/>
</svg>5c0,.73-3.57,7.08-3.06,17.09s-1.38,16.11-.05,18.31.81,4.15,12.56,0,22.21-4.88,28.59-1.46,7.66,7.08,6.64,10-6,3.66-16.38,4.39-18.09,2.44-22.43,2.93-9.47,1-9.47,1-1.29,2.93,0,12.45-3.21,12.7-.57,16.11,8,1.71,18.21-2.68S154.84,199.48,164.54,199.72Z"/><path class="cls-1" d="M226,315.26c4.54.47,8.33.54,9.19-1.25,1.15-2.41,3.89-13.24,4-18.22s1.38-22.57.73-27.47-.16-15.08-1.54-17.37-3.91-4.76-10.11-5.26c-3.84-.31-10.32-.3-16.77-.09a41.7,41.7,0,0,0-6,1.26c-6.46,2-7.51,4.3-9.56,5,.55.6,0,1.14-3,.92-5.34-.4-14.57-1.68-14.57-1.68-6.52-.31-13.06-.85-14,1.63s-2.72,13.47-2.37,18.44.61,22.62,1.69,27.46,1.49,15,3.06,17.23c1.33,1.87,3.66,3.72,8.1,4.31,7.37-1.4,19-7.52,26.2-8.61C207.19,310.61,218.5,313.27,226,315.26Z"/><path class="cls-1" d="M449,309.23c-.12-10.5-10.12-48.25-10.37-55s2.5-24.5,7.5-36.75-.25-51.75-1.75-59.25-.25-39.5,3-48.75.75-30.25,0-42.75-11-18.5-21.5-22.25-46.75,1.75-56.75,3-39.75-3.75-48.75-6.08-46.5.33-52.48,0-20.27,1.55-22.27.2,6,4.6,7.5,4.6,9,1.25,12.25,1.75,2.5,2.5,2.31,4.5-5.31.75-10.81.75-8.75.25-15.25.5-11.5,1-11.5,1a51.88,51.88,0,0,1,5.36-3.5,20.47,20.47,0,0,0,3.53-2.5s.11-2.25-3.53-3-7.11-1.5-18.36-1.75-74.25-1.5-80.25-2.28-9.25,5.28-16.75,6-20-3.5-31.5-5.5-16.5,2-27.25,6.25c-9,3.56-11.34,17-11.87,21.27-.1.85-.13,1.34-.13,1.34L49.84,73a55,55,0,0,1,3.54,7.5c1.75,4.5,2.25,5.25,0,10.75s-.75,6.75-.25,14-.25,26.5-.25,26.5L51.63,147l2.5,17.76a81.74,81.74,0,0,1,1.5,15.75c-.25,7-1.25,27.75-1.75,35.5s.75,4.25,1.5,10.25-1.5,9.25-2.75,12.25,4.5,25,4.5,25l-2.75,10-3.75,31.75L57.38,328l1.25,7.75L58.38,343s-2.5,4.5-4.5,7.75-.25,7.5-1,13.5-.25,21,1.5,29.25-1.75,18.75-1.25,22.75,0,11.75-.75,21.38,0,5.37,4.5,9.91,8.25,9.21,19,8.81,24,3.23,24,3.23,6-2.58,16.72-3.92a32.7,32.7,0,0,1,18.32,2.84s14.5-.5,22.07-2.15,15.68,1.15,27.93,1.4,47.25,2.25,58.29,1.75,20-3.5,28.21-4.59,31-.66,36-.87,14,0,22.75-2.13,15.25,3.09,19.5,3.75,21.5,2.84,34,1.84,31.5,3,40.25,0,22-17.75,22-26,2-34.52,1-43.52S449.13,319.73,449,309.23ZM119,220.54c-.63-.25-.64,9.76-.1,17.33s-1.31,36.38-.29,52-.76,69.58-3.83,92.28-13,28.81-17.61,29.06-6.64-5.62-12.77-13.43S80,383.87,80.54,376.55s12.77-33.94,17.87-59.08,8.17-71.05,8.68-98.15-2.29-57.87-4.85-76.67a108.65,108.65,0,0,0-9.7-32.47s-9.7-11.47-7.4-15.13,10-2.2,19.4,2,18.64,13.43,25,12.69,18.64-6.34,30.38-9.27,25.79-10.5,30.38-10.5,6.9,2.44,16.86,7.08,16.33,10.5,18.12,13.18.77,4.89-4.59,10.74-3.32,17.34-9.45,25.64-4.6,21.73-4.6,31.74-.25,26.12-3.57,39.31-12,12-18.13,9.52-6.63-13.67-6.63-13.67l-5.88.24s-11.74,1.22-23.49,1.47S119.6,220.78,119,220.54Zm155.8,168c-4.6-3.11-14.75-4.21-37.15-7.87s-36.19-.37-59.55-.55-27.76-.92-33.89,0-7.47,3.11-10.15,3.11-1.91-7.69-1.53-11.54,4.79-4.58,4.79-4.58,4.4,1.84,5.17,2,18.57-3.11,35.42-1.83,15.89,0,15.89,0,2.3-5.31,3.83-16.67c1.23-9.12-2.49-25.26-2.49-25.26l-1.88-1.71c-4.44.61-8.83,1.24-12.11,1.62-6.18.71-11.32,1.68-15.34,1.2s-4.22-2-9-2.83-10.28-1.83-10.48-3.09,5-4.29,5.94-6.84-1.51-22.88-2.12-27-3.37-25.18-4-28.89-1-11.55,2.26-14,5.46-3.85,9.62-3.49a24.9,24.9,0,0,1,3.78.82,44.15,44.15,0,0,1,9.74.36l.56.06c.52,0,1.11,0,1.82,0,4.58.26,20.4.67,27.38.4s17.24-1.19,23.47-1.49,11.45-.93,15.42-.18,4,2.24,8.72,3.42,10.1,2.51,10.19,3.77-5.38,3.95-6.53,6.42-.51,22.9-.26,27,1.15,25.32,1.41,29.06,0,11.58-3.47,13.83-5.8,3.47-9.92,2.83c-3-.46-9.7-3.39-15.18-5.68-6.67.25-15.91.72-20.79,1.23-.89.09-1.83.2-2.81.32a214.18,214.18,0,0,1,8.86,21.13c3.26,9.7,4.79,19.22,13,20.69s33.51,5.67,42.7,7.32,11.3,8.61,14.75,13S279.36,391.7,274.77,388.59Zm59.46-100.32c0,.2,0,.38,0,.58.66,15.6-.87,53.34-2,60.26s-.87,9.7-3.06,9.18-8.94,1.56-12.65-6.41-2.84-10.46.22-14.92,8.07-32.86,5.67-44.46-5.67-22.33-15.06-23.37-14.18-2.07-16.58-1.21a8.83,8.83,0,0,0-2.42,1.45c-.1,5,1,30.85,2.42,36.64,1.52,6.06,2.4,35.66,1.75,41.2s-7.2,13.33-9.39,12.64-4.8-5.54-7.83-8.14.41-8.31,0-16.1S276.43,323.49,274,319s1.74-10.91,1.33-18.7-.89-17.83-2.37-26.66,3.22-14.71,4.75-20.8-3.93-11.92-3.93-12.09a28.32,28.32,0,0,0-1.76-4.85c-1.11-2.25,1.32-3.28,5.25-2.77s12.22,4.51,13.53,9c.63,2.18.14,7.81-.57,13.37.9,2,2.73,3.88,6.46,4.11,8.29.52,21.17-.52,27.93,5.89,4.73,4.47,7.22,6.49,8.51,12.62,4.43-.16,12.89,0,20.08,2.78,10.25,4,17.67,9.35,17.45,22.34s-.42,35.14,0,42.24,2.84,11.32,0,11.89-17.25-1.16-18.55-9.3.43-25.44.43-32.37,2.18-21.12-.43-23.72-9.11-3.47-13.53-4A13.64,13.64,0,0,0,334.23,288.27ZM299.5,235.16c.26,0,3.84-1,3.84-1,1.88-3.11,3.41-2.89,14.85-2.89s35.84,3.34,43.18,1.45,10.42-7.24,14-1.45,6.83,16.41,7,20.56-.17,8.84-4.44,6.6-15-8.91-22.19-9.8-32.43-7.12-37.38-8-17.92-.22-20.48-2.45S299.24,235.16,299.5,235.16Zm116,20.12c.26,22.22,6.64,117.43,7.15,125.49s3.07,14.89,0,23.2-9.44,21-14,27.34-8.42,12.21-14,8.55-21.19-19.54-29.87-28.81-8.94-9.28-14.81-13.43-13.79-12.94,2-8.79,22,7.32,28.09,7.81,8.93,1,10.46-12,7.15-47.61,6.39-64.21S398.1,265,398.61,248s-.51-24.17-1.27-35.4-3.58-15.13-14.81-15.38-19.4,3.66-31.66,3.91-30.64,3.42-32.68,3.42-1.53,4.63-2,9.27-6.64,5.37-10.72,1-8.43-14.4-9.19-26.12,2.8-36.14,3.06-49.08-.51-31.49-6.38-40.53-13.54-19.53-10-22.46,10-.24,10-.24,10.72,6.83,15.06,10,3.32,4.88,15.06,1,33.7-6.59,44.17-11,13-7.82,21.7-7.33,19.66,5.88,26.81,10.26,12,10.5,7.91,17.33-7.91,19.29-7.91,33.69S415.21,233.06,415.46,255.28Z"/><path class="cls-1" d="M448.87,243.82c.25.09-4.5,7.09-3.5,12.34s1.68,9,1.68,9,.58,13.25,1.82,14,2.25-7.75,1.5-14.75.26-10.75.25-16S449.37,233,449.37,233s-3.75,2.17-2.5,5.42S448.87,243.82,448.87,243.82Z"/><path class="cls-1" d="M241.08,50.16c.84,0,8.09-2.5,8.09-2.5l4.5,2.5s-2.09,2-6.29,1.5A22,22,0,0,1,241.08,50.16Z"/><path class="cls-1" d="M241.08,50.16c.84,0,8.09-2.5,8.09-2.5l4.5,2.5s-2.09,2-6.29,1.5A22,22,0,0,1,241.08,50.16Z"/></svg>